<svg width="68" height="38" viewBox="0 0 68 38" fill="none" xmlns="http://www.w3.org/2000/svg">
<path d="M15.7939 13.2452H0.949951C0.949951 16.1393 4.49226 16.1809 4.49226 16.1809H14.6132L0.949951 34.5464C0.949951 37.3039 4.40791 37.3114 4.40791 37.3114H19.041C19.041 34.5731 15.7939 34.5464 15.7939 34.5464H4.49226L19.041 16.1809C19.041 13.2452 15.7939 13.2452 15.7939 13.2452Z" fill="white"/>
<path d="M40.0229 13.2452H28.6871C28.6871 13.2452 25.3518 13.5491 25.3518 16.2216H43.5481C43.5481 16.2216 43.3486 13.2452 40.0229 13.2452Z" fill="white"/>
<path d="M28.6935 37.3114H40.0508C43.5826 37.3114 43.5481 34.5902 43.5481 34.5902H25.3518C25.3518 37.3114 28.6935 37.3114 28.6935 37.3114Z" fill="white"/>
<mask id="mask0_31_36" style="mask-type:alpha" maskUnits="userSpaceOnUse" x="0" y="0" width="68" height="38">
<path d="M0.949951 37.3106H67.9313V0.404266H0.949951V37.3106Z" fill="white"/>
</mask>
<g mask="url(#mask0_31_36)">
<path d="M25.3382 26.6272H43.5419V23.8622H25.3382V26.6272Z" fill="white"/>
</g>
<mask id="mask1_31_36" style="mask-type:alpha" maskUnits="userSpaceOnUse" x="0" y="0" width="68" height="38">
<path d="M0.949951 37.3106H67.9313V0.404266H0.949951V37.3106Z" fill="white"/>
</mask>
<g mask="url(#mask1_31_36)">
<path d="M64.509 16.1823V32.6524C64.509 32.6524 64.4772 34.5272 62.4397 34.5272L55.0552 34.5459C55.0552 34.5459 52.9785 34.5459 52.9785 32.6371L52.9915 17.3877C52.9915 17.3877 52.9915 16.1823 55.0169 16.1823H64.509ZM67.9302 34.5459V0.404297H64.509V13.2469H53.105C49.7184 13.2469 49.6842 16.1823 49.6842 16.1823V34.5459C49.6842 37.3046 52.9785 37.3106 52.9785 37.3106H64.5514C68.0912 37.3106 67.9302 34.5459 67.9302 34.5459Z" fill="white"/>
</g>
</svg>
