<svg width="68" height="38" viewBox="0 0 68 38" fill="none" xmlns="http://www.w3.org/2000/svg">
<path d="M15.7939 13.4848H0.949951C0.949951 16.4328 4.49226 16.4752 4.49226 16.4752H14.6132L0.949951 35.1833C0.949951 37.9923 4.40791 38 4.40791 38H19.041C19.041 35.2106 15.7939 35.1833 15.7939 35.1833H4.49226L19.041 16.4752C19.041 13.4848 15.7939 13.4848 15.7939 13.4848Z" fill="white"/>
<path d="M40.0229 13.4848H28.6871C28.6871 13.4848 25.3518 13.7944 25.3518 16.5167H43.5481C43.5481 16.5167 43.3486 13.4848 40.0229 13.4848Z" fill="white"/>
<path d="M28.6935 38H40.0508C43.5826 38 43.5481 35.2279 43.5481 35.2279H25.3518C25.3518 38 28.6935 38 28.6935 38Z" fill="white"/>
<mask id="mask0_31_118" style="mask-type:alpha" maskUnits="userSpaceOnUse" x="0" y="0" width="68" height="38">
<path d="M0.949951 37.9992H67.9313V0.404266H0.949951V37.9992Z" fill="white"/>
</mask>
<g mask="url(#mask0_31_118)">
<path d="M25.3382 27.1164H43.5419V24.2999H25.3382V27.1164Z" fill="white"/>
</g>
<mask id="mask1_31_118" style="mask-type:alpha" maskUnits="userSpaceOnUse" x="0" y="0" width="68" height="38">
<path d="M0.949951 37.9992H67.9313V0.404266H0.949951V37.9992Z" fill="white"/>
</mask>
<g mask="url(#mask1_31_118)">
<path d="M64.509 16.4767V33.2541C64.509 33.2541 64.4772 35.1638 62.4397 35.1638L55.0552 35.1828C55.0552 35.1828 52.9785 35.1828 52.9785 33.2385L52.9915 17.7046C52.9915 17.7046 52.9915 16.4767 55.0169 16.4767H64.509ZM67.9302 35.1828V0.404297H64.509V13.4865H53.105C49.7184 13.4865 49.6842 16.4767 49.6842 16.4767V35.1828C49.6842 37.9931 52.9785 37.9992 52.9785 37.9992H64.5514C68.0912 37.9992 67.9302 35.1828 67.9302 35.1828Z" fill="white"/>
</g>
</svg>
