<svg width="135" height="35" viewBox="0 0 135 35" fill="none" xmlns="http://www.w3.org/2000/svg">
<path d="M8.65784 33.9062V30.3516H10.2828V23.2422H7.03284V26.7969H3.78284V9.02344H7.03284V12.5781H10.2828V5.46875H8.65784V1.91406H2.15784V5.46875H0.532837V30.3516H2.15784V33.9062H8.65784ZM16.1978 33.9062V23.2422H19.4478V33.9062H22.6978V19.6875H21.0728V16.1328H22.6978V5.46875H21.0728V1.91406H12.9478V33.9062H16.1978ZM19.4478 16.1328H16.1978V9.02344H19.4478V16.1328ZM31.8628 33.9062V23.2422H33.4878V19.6875H35.1128V1.91406H31.8628V16.1328H28.6128V1.91406H25.3628V19.6875H26.9878V23.2422H28.6128V33.9062H31.8628ZM41.0278 33.9062V23.2422H45.9028V19.6875H47.5278V5.46875H45.9028V1.91406H37.7778V33.9062H41.0278ZM44.2778 16.1328H41.0278V9.02344H44.2778V16.1328ZM56.6928 33.9062V9.02344H59.9428V1.91406H50.1928V9.02344H53.4428V33.9062H56.6928ZM70.7328 33.9062V30.3516H72.3578V5.46875H70.7328V1.91406H64.2328V5.46875H62.6078V30.3516H64.2328V33.9062H70.7328ZM69.1078 26.7969H65.8578V9.02344H69.1078V26.7969ZM78.2728 33.9062V23.2422H83.1478V19.6875H84.7728V5.46875H83.1478V1.91406H75.0228V33.9062H78.2728ZM81.5228 16.1328H78.2728V9.02344H81.5228V16.1328ZM95.5628 33.9062V30.3516H97.1878V1.91406H93.9378V26.7969H90.6878V1.91406H87.4378V30.3516H89.0628V33.9062H95.5628ZM103.103 33.9062V23.2422H104.728V26.7969H106.353V33.9062H109.603V1.91406H106.353V12.5781H104.728V9.02344H103.103V1.91406H99.8528V33.9062H103.103ZM115.518 33.9062V23.2422H117.143V26.7969H118.768V33.9062H122.018V23.2422H120.393V19.6875H118.768V16.1328H120.393V12.5781H122.018V1.91406H118.768V9.02344H117.143V12.5781H115.518V1.91406H112.268V33.9062H115.518ZM132.808 33.9062V30.3516H134.433V16.1328H132.808V12.5781H134.433V5.46875H132.808V1.91406H126.308V5.46875H124.683V16.1328H126.308V19.6875H131.183V26.7969H127.933V23.2422H124.683V30.3516H126.308V33.9062H132.808ZM131.183 12.5781H127.933V9.02344H131.183V12.5781Z" fill="white"/>
</svg>
