<svg width="178" height="37" viewBox="0 0 178 37" fill="none" xmlns="http://www.w3.org/2000/svg">
<g clip-path="url(#clip0_31_70)">
<path d="M108.798 16.8169C111.282 16.8169 113.159 17.5377 114.539 18.9192C115.919 20.3007 116.581 22.2828 116.581 24.8055C116.581 25.7065 116.526 26.5474 116.36 27.4483L115.532 28.5295L106.26 28.5896C106.425 29.4305 106.867 30.2113 107.529 30.6918C108.302 31.1723 109.185 31.4126 110.123 31.3525C111.945 31.2324 113.711 30.9321 115.477 30.3314L115.974 30.7519L114.87 36.1577C113.048 36.6983 111.227 36.9986 109.35 36.9986C106.26 36.9986 103.831 36.0976 102.12 34.2957C100.409 32.4938 99.5258 30.0311 99.5258 26.9078C99.5258 23.7844 100.354 21.3218 102.01 19.5198C103.665 17.7179 105.928 16.8169 108.798 16.8169ZM30.9743 16.8169C33.4581 16.8169 35.3347 17.5377 36.7146 18.9192C38.0944 20.3007 38.7567 22.2828 38.7567 24.8055C38.7567 25.7065 38.7016 26.5474 38.536 27.4483L37.7081 28.5295L28.4354 28.5896C28.601 29.4305 29.0425 30.2113 29.7049 30.6918C30.4776 31.1723 31.3607 31.4126 32.299 31.3525C34.1204 31.2324 35.8866 30.9321 37.6529 30.3314L38.2048 30.7519L37.1009 36.1577C35.2795 36.6983 33.4581 36.9986 31.5815 36.9986C28.4906 36.9986 26.062 36.0976 24.351 34.2957C22.64 32.4938 21.7569 30.0311 21.7017 26.9078C21.7017 23.7844 22.5296 21.3218 24.1854 19.5198C25.8413 17.7179 28.1042 16.8169 30.9743 16.8169ZM49.0781 16.8169C51.5619 16.8169 53.4385 17.5377 54.8183 18.9192C56.1982 20.3007 56.8605 22.2828 56.8605 24.8055C56.8605 25.7065 56.8053 26.5474 56.6397 27.4483L55.8118 28.5295L46.5392 28.5896C46.7047 29.4305 47.1463 30.2113 47.8086 30.6918C48.5814 31.1723 49.5197 31.4126 50.4028 31.3525C52.2242 31.2324 53.9904 30.9321 55.7566 30.3314L56.3086 30.7519L55.2047 36.1577C53.3833 36.6983 51.5619 36.9986 49.6852 36.9986C46.5944 36.9986 44.1658 36.0976 42.4548 34.2957C40.6886 32.4938 39.8606 30.0311 39.8606 26.9078C39.8606 23.7844 40.6886 21.3218 42.3444 19.5198C44.0002 17.7179 46.208 16.8169 49.0781 16.8169ZM166.918 16.6367C168.74 16.8169 170.616 17.1773 172.382 17.838L171.444 23.3039L170.616 23.6042C169.788 23.0636 168.905 22.5831 168.022 22.2227C167.36 21.9224 166.642 21.7422 165.925 21.7422C165.262 21.7422 164.931 21.9825 164.931 22.463C164.931 22.8234 165.152 23.1838 165.483 23.3639C166.09 23.7243 166.697 23.9646 167.36 24.2049C168.298 24.5652 169.181 24.9857 170.064 25.4662C170.782 25.8867 171.444 26.5474 171.941 27.2681C172.493 28.109 172.769 29.1902 172.714 30.2113C172.714 31.3525 172.438 32.5538 171.886 33.5149C171.279 34.596 170.34 35.497 169.236 35.9775C167.801 36.6382 166.256 36.9385 164.71 36.8785C162.558 36.8785 160.405 36.5181 158.363 35.7973L159.246 29.971L159.853 29.4905C160.792 30.2714 161.785 30.872 162.889 31.3525C163.772 31.773 164.71 32.0132 165.649 32.0733C166.366 32.0733 166.697 31.833 166.697 31.2925C166.697 30.9321 166.477 30.5717 166.145 30.3915C165.538 30.0311 164.931 29.7308 164.269 29.5506C163.331 29.1902 162.447 28.7698 161.564 28.2892C160.847 27.8688 160.184 27.2681 159.688 26.4873C159.136 25.5863 158.86 24.5652 158.915 23.4841C158.915 22.2828 159.246 21.0815 159.853 20.0003C160.516 18.9192 161.509 18.0783 162.613 17.5377C163.993 16.877 165.428 16.5767 166.918 16.6367ZM155.714 7.8673L155.438 27.9289L155.493 30.3915C155.493 30.6318 155.493 30.872 155.603 31.1123C155.659 31.2324 155.824 31.3525 155.99 31.2925C156.21 31.2925 156.431 31.2324 156.597 31.1723L157.038 31.5928L156.376 35.6772C155.327 36.3979 154.113 36.8184 152.899 36.8785C152.126 36.8184 151.409 36.5181 150.801 36.0376C150.194 35.497 149.698 34.8363 149.366 33.9954H149.09C148.097 35.1366 146.883 36.0976 145.558 36.8184C143.405 36.9385 141.363 35.9775 139.983 34.2356C138.659 32.4938 137.941 30.1512 137.941 27.148C137.941 23.7844 138.769 21.2617 140.425 19.5198C142.081 17.7779 144.344 16.877 147.214 16.877C147.655 16.877 148.152 16.937 148.594 16.9971L148.483 8.40788L155.714 7.8673ZM62.8767 0.0234757C62.9319 0.0234757 62.9319 0.0835403 62.9871 0.0835403C62.9871 0.143605 63.0423 0.203669 63.0423 0.263734V1.04457C63.0423 1.46502 63.0975 1.88548 63.0975 2.30593C63.0975 2.54619 63.0975 2.84651 63.1527 3.08677C63.1527 3.44715 63.1527 3.80754 63.2079 4.16793C63.2079 4.58838 63.2079 4.94877 63.0975 5.36922C63.0423 5.60948 62.9871 5.78967 62.8215 5.96986C63.0975 6.27019 63.0975 6.27019 63.0423 6.33025C63.2079 6.27019 63.3735 6.27019 63.4839 6.21012L64.4773 6.02993C64.8085 5.96986 65.1397 6.02993 65.4156 6.02993C65.526 6.02993 65.6364 6.02993 65.7468 6.08999C65.9124 6.08999 66.0228 6.15006 66.1884 6.27019C66.4643 6.39032 66.6851 6.57051 66.9059 6.7507L67.1267 6.99096C67.1819 7.05102 67.1819 7.05102 67.2371 7.05102C67.513 6.87083 67.8442 6.87083 68.1754 6.81077C68.341 6.7507 68.5065 6.7507 68.6169 6.7507C68.8377 6.7507 69.0585 6.9309 69.1689 7.17115C69.3345 7.47148 69.5 7.83186 69.5552 8.19225C69.6104 8.55264 69.6104 8.91303 69.6104 9.27341L69.6098 10.1497L75.1299 10.1498L75.5714 10.6903L75.0747 16.6367L69.1137 16.3965H66.4091L66.2988 21.1416H68.8377L73.1981 21.0214L73.5844 21.6221L73.1429 27.5685L68.341 27.4483H66.1884V27.9889L66.4643 36.5181H58.9579L59.3443 28.7698L58.9579 10.1498L60.1548 10.1497L60.1179 10.0961C60.0596 9.98458 60.0508 9.85003 60.0066 9.75393C60.0066 9.57373 59.9514 9.33348 59.9514 9.15328C59.9514 8.49257 59.9514 7.89193 59.8962 7.23122V6.99096C59.8962 6.9309 59.8962 6.87083 59.7858 6.87083C59.5099 6.87083 59.2339 6.87083 58.9579 6.7507C58.6819 6.63057 58.4612 6.39031 58.2956 6.15006C58.1852 5.96986 58.13 5.72961 58.13 5.48935V4.46825C58.13 4.28806 58.1852 4.16793 58.1852 3.98773C58.2404 3.50722 58.2956 3.0267 58.2956 2.54619C58.3508 2.06567 58.3508 1.58515 58.406 1.10464C58.406 0.924444 58.4612 0.684185 58.4612 0.503992C58.4612 0.443927 58.5164 0.383863 58.5715 0.443927L58.6819 0.564056C58.9027 0.864379 59.0131 1.22477 59.1235 1.58515C59.1787 1.70528 59.1787 1.76535 59.2339 1.88548C59.2891 1.88548 59.3443 1.82541 59.3995 1.82541C59.6754 1.70528 59.9514 1.64522 60.2274 1.58515C60.5034 1.52509 60.7793 1.52509 61.0553 1.52509C61.3313 1.52509 61.552 1.64522 61.7728 1.70528C61.8832 1.76535 61.9936 1.82541 62.1592 1.94554C62.1592 1.88548 62.2144 1.76535 62.2144 1.70528C62.3248 1.40496 62.4352 1.04457 62.5455 0.74425C62.6007 0.503992 62.7111 0.323798 62.7663 0.0835403C62.7663 0.0234757 62.8215 -0.0365888 62.8767 0.0234757ZM97.318 17.2374L96.9869 27.9889L97.2628 36.5181H89.9772L90.3083 28.7698L90.0324 17.7179L97.318 17.2374ZM7.79267 10.1498L8.45501 14.4744L11.2699 29.1902H11.7115L15.1335 15.015L15.8511 10.1498H23.1919L15.8511 36.458H6.79917L0.175842 10.1498H7.79267ZM130.159 16.937C132.035 16.937 133.47 17.4176 134.464 18.3185C135.457 19.3396 136.009 20.7812 135.899 22.2828L135.733 27.8087L136.009 36.3379L128.779 36.458L129.165 25.7065C129.165 24.0247 128.558 23.2438 127.399 23.2438C126.792 23.2438 126.185 23.424 125.633 23.7844V27.8688L125.909 36.3979H118.568L118.899 28.6496L118.623 17.5978L125.522 17.1172V19.9403H125.798C127.013 18.5588 128.503 17.5377 130.159 16.937ZM87.383 17.1773C87.7142 17.2374 87.9902 17.2374 88.2661 17.2974V24.385L87.5486 24.6253C87.1623 24.385 86.6655 24.2649 86.224 24.325C85.6168 24.325 85.0097 24.5052 84.4577 24.7454C83.8506 25.0458 83.2435 25.4061 82.7467 25.8867V27.9289L83.0227 36.458H75.7922L76.1234 28.7097L75.8474 17.6578L82.7467 17.1773V20.7812H83.0779C84.1266 18.3786 85.5616 17.1773 87.383 17.1773ZM145.282 22.8834C144.951 23.3639 144.785 23.1237 144.785 24.5052C144.785 26.3672 144.951 28.9499 145.282 29.7308C145.558 30.5116 146.22 30.9921 146.938 30.9921C147.6 30.9921 148.207 30.6918 148.704 30.1512L148.759 28.7097L148.704 22.5831C148.152 22.3429 147.6 22.1627 147.048 22.1627C146.386 22.1026 145.724 22.3429 145.282 22.8834ZM30.9191 21.8623C29.5393 21.8623 28.7114 22.8234 28.4354 24.7454L32.575 24.5652V24.0247C32.575 22.5831 32.023 21.8623 30.9191 21.8623ZM108.633 21.8623C107.253 21.8623 106.425 22.8234 106.149 24.7454L110.289 24.5652L110.344 24.0247C110.344 22.5831 109.792 21.8623 108.633 21.8623ZM49.0229 21.8623C47.6431 21.8623 46.8151 22.8234 46.5392 24.7454L50.6236 24.5652L50.6787 24.0247C50.6787 22.5831 50.1268 21.8623 49.0229 21.8623ZM175.694 13.5134L176.191 15.015L176.688 13.5134H177.405V15.7958H176.853V14.2942L176.356 15.7958H175.97L175.473 14.2942V15.7958H174.921L174.977 13.5134H175.694ZM174.48 13.5134V13.9939H173.873V15.7958H173.321V13.9939H172.714V13.5134H174.48ZM93.8408 6.78614C94.7239 6.78614 95.6622 7.14653 96.3245 7.8673C96.9869 8.64814 97.318 9.66924 97.2628 10.6903C97.318 11.8316 96.9317 12.9127 96.2693 13.7536C95.5518 14.5345 94.5583 14.9549 93.5096 14.8949C92.5713 14.9549 91.5778 14.5945 90.9155 13.8738C90.2531 13.0929 89.9772 12.0718 90.0324 10.9907C89.9772 9.84943 90.3635 8.70821 91.0811 7.92737C91.7986 7.14653 92.7921 6.72608 93.8408 6.78614ZM67.5682 7.47148C67.5682 7.47148 67.5682 7.53154 67.6234 7.53154C67.6786 7.71173 67.7338 7.83186 67.789 8.01206C67.8994 8.37244 67.9546 8.73283 68.0098 9.09322C68.065 9.39354 68.065 9.69386 68.065 9.99419C68.065 10.0617 68.0476 10.1102 68.0127 10.1505L68.9413 10.15C68.9454 10.018 68.9481 9.88595 68.9481 9.75393C68.9481 9.33348 68.8929 8.97309 68.8377 8.55264C68.8377 8.37244 68.7273 8.19225 68.6721 8.01206C68.5617 7.71173 68.341 7.59161 68.065 7.53154C67.8994 7.53154 67.7338 7.47148 67.5682 7.47148ZM67.0163 8.7929H66.9059V9.33348C66.9059 9.51367 66.9059 9.69386 66.8507 9.87406C66.8507 9.99419 66.7955 10.0543 66.7403 10.1143L66.7158 10.1497L67.2905 10.1509C67.228 10.0895 67.1819 10.0118 67.1819 9.93412V8.91303C67.1819 8.73283 67.1819 8.73283 67.0163 8.7929ZM63.815 8.19225C63.539 8.25232 63.2631 8.31238 62.9871 8.31238C62.7111 8.37244 62.4904 8.49257 62.2696 8.67277C62.2696 8.67277 62.2144 8.73283 62.2144 8.7929C62.2144 9.03315 62.2144 9.27341 62.2696 9.51367C62.2696 9.6338 62.3248 9.75393 62.3248 9.87406L62.3238 10.1497H66.0568L66.0375 10.1284C65.9986 10.0805 65.9676 10.0242 65.9676 9.93412V9.45361C65.9676 9.15328 65.9676 8.7929 65.9124 8.49257C65.9124 8.43251 65.8572 8.37244 65.802 8.37244L64.9741 8.19225C64.5877 8.13219 64.2014 8.19225 63.815 8.19225ZM61.2761 8.55264H61.0553V9.81399C61.0553 9.9323 61.0315 10.0506 60.9995 10.1519L61.4116 10.1504C61.3865 10.0795 61.3865 9.99823 61.3865 9.93412C61.3865 9.51367 61.3313 9.03315 61.3313 8.6127C61.3313 8.55264 61.3313 8.55264 61.2761 8.55264Z" fill="white"/>
</g>
<defs>
<clipPath id="clip0_31_70">
<rect width="178" height="37" fill="white"/>
</clipPath>
</defs>
</svg>
