<svg width="133" height="37" viewBox="0 0 133 37" fill="none" xmlns="http://www.w3.org/2000/svg">
<path d="M67.8407 5.32753H69.8166V4.88175L69.3227 4.43597H66.8528L66.3588 4.88175V8.44798L66.8528 8.89376H69.3227L69.8166 8.44798V8.0022H67.8407V7.11065H69.8166V6.21909H67.8407V5.32753Z" fill="white"/>
<path d="M69.4846 0.451233H66.6909V2.97236H69.4846V0.451233Z" fill="white"/>
<path d="M64.0536 4.43597V6.21909H62.5717V4.43597H61.5838L61.0898 4.88175V8.44798L61.5838 8.89376H62.5717V7.11065H64.0536V8.89376H65.0416L65.5355 8.44798V4.88175L65.0416 4.43597H64.0536Z" fill="white"/>
<path d="M56.3148 4.43597L55.8208 4.88175V5.32753H57.3027V8.44798L57.7967 8.89376H58.2906L58.7846 8.44798V5.32753H60.2665V4.88175L59.7726 4.43597H56.3148Z" fill="white"/>
<path d="M2.55425 10.4293L0.578369 12.2124V19.3448L2.55425 21.1279H10.4578V24.6942H6.50602V22.9111H0.578369V26.4773L2.55425 28.2604H14.4096L16.3854 26.4773V19.3448L14.4096 17.5617H6.50602V13.9955H10.4578V15.7786H16.3854V12.2124L14.4096 10.4293H2.55425Z" fill="white"/>
<path d="M55.9031 10.4293V28.2604H69.7343L71.7102 26.4773V12.2124L69.7343 10.4293H55.9031ZM61.8308 13.9955H65.7825V24.6942H61.8308V13.9955Z" fill="white"/>
<path d="M73.6861 10.4293V28.2604H87.5173L89.4931 26.4773V21.1279L87.5173 19.3448L89.4931 17.5617V12.2124L87.5173 10.4293H73.6861ZM79.6137 21.1279H83.5655V24.6942H79.6137V21.1279ZM79.6137 17.5617V13.9955H83.5655V17.5617H79.6137Z" fill="white"/>
<path d="M93.4449 10.4293L91.469 12.2124V26.4773L93.4449 28.2604H105.3L107.276 26.4773V12.2124L105.3 10.4293H93.4449ZM97.3967 13.9955H101.348V24.6942H97.3967V13.9955Z" fill="white"/>
<path d="M125.056 19.346L128.788 15.9785L132.52 19.346L128.788 22.7135L125.056 19.346Z" fill="white"/>
<path d="M22.3106 32.6183L26.0422 29.2508L29.7738 32.6183L26.0422 35.9858L22.3106 32.6183Z" fill="white"/>
<path d="M119.131 10.4293V15.7786L117.156 17.5617L115.18 15.7786V10.4293H111.228L109.252 12.2124V17.5617L111.228 19.3448L109.252 21.1279V26.4773L111.228 28.2604H115.18V22.9111L117.156 21.1279L119.131 22.9111V28.2604H123.083L125.059 26.4773V21.1279L123.083 19.3448L125.059 17.5617V12.2124L123.083 10.4293H119.131Z" fill="white"/>
<path d="M47.9996 10.4293V15.7786L42.0719 10.4293H38.1202L36.1443 12.2124V26.4773L38.1202 28.2604H42.0719V17.5617L47.9996 22.9111V28.2604H51.9513L53.9272 26.4773V12.2124L51.9513 10.4293H47.9996Z" fill="white"/>
<path d="M32.1925 10.4689H20.3372L18.3613 12.252V26.5169L20.3372 28.3H24.289V21.1676H28.2407V28.3H32.1925L34.1684 26.5169V12.252L32.1925 10.4689ZM26.2649 18.2551L23.7401 15.9767L26.2649 13.6983L28.7896 15.9767L26.2649 18.2551Z" fill="white"/>
</svg>
