<svg width="133" height="41" viewBox="0 0 133 41" fill="none" xmlns="http://www.w3.org/2000/svg">
<path d="M67.8407 5.64604H69.8166V5.17561L69.3227 4.70517H66.8528L66.3588 5.17561V8.93908L66.8528 9.40952H69.3227L69.8166 8.93908V8.46865H67.8407V7.52778H69.8166V6.58691H67.8407V5.64604Z" fill="white"/>
<path d="M69.4846 0.5H66.6909V3.16057H69.4846V0.5Z" fill="white"/>
<path d="M64.0536 4.70517V6.58691H62.5717V4.70517H61.5838L61.0898 5.17561V8.93908L61.5838 9.40952H62.5717V7.52778H64.0536V9.40952H65.0416L65.5355 8.93908V5.17561L65.0416 4.70517H64.0536Z" fill="white"/>
<path d="M56.3148 4.70517L55.8208 5.17561V5.64604H57.3027V8.93908L57.7967 9.40952H58.2907L58.7846 8.93908V5.64604H60.2665V5.17561L59.7726 4.70517H56.3148Z" fill="white"/>
<path d="M2.55425 11.0299L0.578369 12.9116V20.4386L2.55425 22.3203H10.4578V26.0838H6.50602V24.2021H0.578369V27.9656L2.55425 29.8473H14.4096L16.3854 27.9656V20.4386L14.4096 18.5569H6.50602V14.7934H10.4578V16.6751H16.3854V12.9116L14.4096 11.0299H2.55425Z" fill="white"/>
<path d="M55.9031 11.0299V29.8473H69.7343L71.7102 27.9656V12.9116L69.7343 11.0299H55.9031ZM61.8308 14.7934H65.7826V26.0838H61.8308V14.7934Z" fill="white"/>
<path d="M73.686 11.0299V29.8473H87.5172L89.4931 27.9656V22.3203L87.5172 20.4386L89.4931 18.5569V12.9116L87.5172 11.0299H73.686ZM79.6137 22.3203H83.5655V26.0838H79.6137V22.3203ZM79.6137 18.5569V14.7934H83.5655V18.5569H79.6137Z" fill="white"/>
<path d="M93.4449 11.0299L91.469 12.9116V27.9656L93.4449 29.8473H105.3L107.276 27.9656V12.9116L105.3 11.0299H93.4449ZM97.3966 14.7934H101.348V26.0838H97.3966V14.7934Z" fill="white"/>
<path d="M125.057 20.4399L128.788 16.8861L132.52 20.4399L128.788 23.9937L125.057 20.4399Z" fill="white"/>
<path d="M22.3106 34.4462L26.0422 30.8924L29.7738 34.4462L26.0422 38L22.3106 34.4462Z" fill="white"/>
<path d="M119.131 11.0299V16.6751L117.155 18.5569L115.18 16.6751V11.0299H111.228L109.252 12.9116V18.5569L111.228 20.4386L109.252 22.3203V27.9656L111.228 29.8473H115.18V24.2021L117.155 22.3203L119.131 24.2021V29.8473H123.083L125.059 27.9656V22.3203L123.083 20.4386L125.059 18.5569V12.9116L123.083 11.0299H119.131Z" fill="white"/>
<path d="M47.9996 11.0299V16.6751L42.0719 11.0299H38.1202L36.1443 12.9116V27.9656L38.1202 29.8473H42.0719V18.5569L47.9996 24.2021V29.8473H51.9514L53.9272 27.9656V12.9116L51.9514 11.0299H47.9996Z" fill="white"/>
<path d="M32.1925 11.0717H20.3372L18.3613 12.9535V28.0074L20.3372 29.8891H24.289V22.3622H28.2407V29.8891H32.1925L34.1684 28.0074V12.9535L32.1925 11.0717ZM26.2649 19.2886L23.7401 16.8842L26.2649 14.4798L28.7896 16.8842L26.2649 19.2886Z" fill="white"/>
</svg>
