<svg width="165" height="41" viewBox="0 0 165 41" fill="none" xmlns="http://www.w3.org/2000/svg">
<path d="M66.6057 30.4925H72.4834L67.6191 21.3809C70.558 20.3966 72.3483 18.0791 72.3483 15.0313C72.3483 11.0309 69.3081 7.98313 64.579 7.98313H55.0868V30.4925H60.4239V22.1112H62.3157L66.6057 30.4925ZM60.4239 17.7934V12.3327H63.5655C65.7613 12.3327 66.9436 13.3803 66.9436 15.0631C66.9436 16.6503 65.7613 17.7934 63.5655 17.7934H60.4239ZM74.6171 26.143C74.6171 28.6512 76.7453 30.9371 80.4273 30.9371C82.6567 30.9371 84.2781 30.0481 85.1564 28.7145C85.1564 29.7941 85.2916 30.3655 85.3253 30.4925H89.9532C89.9195 30.3338 89.7504 29.2862 89.7504 28.048V20.3333C89.7504 17.0949 87.7574 14.2377 82.319 14.2377C77.3872 14.2377 75.1575 17.222 74.955 19.4759L79.4138 20.333C79.5151 19.1586 80.4949 18.0155 82.2851 18.0155C83.9066 18.0155 84.7509 18.8091 84.7509 19.73C84.7509 20.2698 84.447 20.6825 83.535 20.8093L79.5826 21.3809C76.8128 21.7618 74.6171 23.3492 74.6171 26.143ZM81.6772 27.4447C80.2585 27.4447 79.6841 26.6511 79.6841 25.8256C79.6841 24.7145 80.4949 24.2382 81.5757 24.0795L84.7509 23.6033V24.3017C84.7509 26.7463 83.1971 27.4447 81.6772 27.4447ZM104.745 14.7137C104.407 14.6185 103.901 14.555 103.394 14.555C102.043 14.555 99.9147 15.0629 99.0366 16.8409V14.7137H94.0708V30.4925H99.2055V23.6033C99.2055 20.4603 101.063 19.3173 103.124 19.3173C103.631 19.3173 104.171 19.3489 104.745 19.4759V14.7137ZM112.994 30.4925V14.7137H107.86V30.4925H112.994ZM107.421 9.88812C107.421 11.4437 108.772 12.7137 110.393 12.7137C112.082 12.7137 113.434 11.4437 113.434 9.88812C113.434 8.33234 112.082 7.0625 110.393 7.0625C108.772 7.0625 107.421 8.33234 107.421 9.88812ZM122.458 30.4925V28.7145C123.235 29.9211 124.958 30.8417 127.187 30.8417C131.883 30.8417 135.193 27.3812 135.193 22.5556C135.193 17.825 132.254 14.3328 127.39 14.3328C125.093 14.3328 123.235 15.2218 122.526 16.2059V7.50688H117.492V30.4925H122.458ZM130.059 22.5873C130.059 25.2223 128.268 26.5241 126.275 26.5241C124.282 26.5241 122.458 25.1907 122.458 22.5873C122.458 19.9205 124.282 18.6823 126.275 18.6823C128.268 18.6823 130.059 19.9205 130.059 22.5873ZM143.641 30.4925V7.50688H138.506V30.4925H143.641ZM152.056 20.7141C152.158 19.5395 153.239 18.0472 155.4 18.0472C157.833 18.0472 158.711 19.5078 158.778 20.7141H152.056ZM159.15 24.8096C158.677 26.0478 157.63 26.8733 155.772 26.8733C153.779 26.8733 152.056 25.6034 151.955 23.8255H163.643C163.676 23.7301 163.744 23 163.744 22.3332C163.744 17.2536 160.535 14.2377 155.333 14.2377C150.975 14.2377 146.955 17.4758 146.955 22.5556C146.955 27.8574 151.076 30.9688 155.704 30.9688C159.961 30.9688 162.629 28.6829 163.44 25.9527L159.15 24.8096Z" fill="white"/>
<path d="M32.298 0.5C36.8958 0.5 40.623 4.00303 40.623 8.32425V30.1758C40.623 34.497 36.8958 38 32.298 38H9.04802C4.45025 38 0.723022 34.497 0.723022 30.1758V8.32425C0.723022 4.00303 4.45025 0.5 9.04802 0.5H32.298ZM24.5333 12.5H10.897V25.8184H16.6366V21.2982H23.4448C24.4939 21.2982 25.1074 21.6889 25.1074 22.6562V25.8184H30.847V22.4888C30.847 20.6752 29.7585 19.531 28.2543 19.1127C29.5111 18.8056 30.6293 17.922 30.6293 16.1457C30.6293 13.1881 27.9575 12.5 24.5333 12.5ZM23.5438 16.4061C24.2959 16.4061 24.7511 16.4991 24.7511 17.0572C24.7511 17.6152 24.2959 17.7083 23.5441 17.7083H16.6366V16.4061H23.5438Z" fill="white"/>
</svg>
