<svg width="114" height="37" viewBox="0 0 114 37" fill="none" xmlns="http://www.w3.org/2000/svg">
<path d="M15.0363 7.56317H10.7134L5.0637 35.9093H0.307289L5.8834 7.56317H1.4024L2.6957 0.906128H16.3784L15.0363 7.56317Z" fill="white"/>
<path d="M18.3326 0.906128H32.2054L24.8559 35.9093H11.2395L18.3326 0.906128ZM17.3416 29.276H21.5042L26.0093 7.56091H21.7957L17.3416 29.276Z" fill="white"/>
<path d="M31.6524 35.9093H26.9273L33.2765 5.84406L37.799 0.906128H47.6521L41.9507 27.0254H33.5512L31.6524 35.9093ZM38.6471 20.3197L41.4006 7.56317H37.7116L34.9836 20.3197H38.6471Z" fill="white"/>
<path d="M57.232 35.9093H44.8346L47.239 25.0156H51.9925L51.0402 29.276H53.9823L55.2392 23.7082L49.6289 14.9214L52.7255 0.906128H65.0573L62.6886 11.3113H58.3424L59.1825 7.57901H56.0494L55.0294 12.1539L60.6485 20.9169L57.232 35.9093Z" fill="white"/>
<path d="M68.7711 15.2811H72.8718L76.2285 0.906128H81.0432L72.7799 35.9093H68.0549L71.322 21.9178H67.2366L64.0001 35.9093H59.275L67.2818 0.906128H72.0965L68.7711 15.2811Z" fill="white"/>
<path d="M83.0935 0.906128H96.9664L88.4059 35.9093H74.7917L83.0935 0.906128ZM81.1263 29.276H85.2896L90.5444 7.56091H86.3322L81.1263 29.276Z" fill="white"/>
<path d="M111.078 7.56317H106.752L99.6463 35.9093H94.8898L101.922 7.56317H97.4415L99.0801 0.906128H112.762L111.078 7.56317Z" fill="white"/>
</svg>
