<svg width="40" height="37" viewBox="0 0 40 37" fill="none" xmlns="http://www.w3.org/2000/svg">
<path d="M20.2627 0.451233C31.0339 0.4626 39.7626 8.53666 39.7749 18.5C39.7749 28.4681 31.039 36.5488 20.2627 36.5488C9.4864 36.5488 0.750488 28.4681 0.750488 18.5C0.750488 8.53195 9.4864 0.451233 20.2627 0.451233ZM19.4441 27.0947H5.2801C8.03303 31.2304 12.6404 34.0113 17.8414 34.6766C23.0425 35.3419 28.2928 33.8219 32.1558 30.5325H18.4044C18.0471 30.5327 17.7214 30.3433 17.5666 30.0454C17.4118 29.7475 17.4554 29.3939 17.6787 29.1359L19.4441 27.0947ZM33.484 7.65103C27.6978 1.60937 18.0078 0.384313 10.6812 4.76819C3.35454 9.15206 0.589503 17.8296 4.17441 25.1884L13.9575 13.6715C14.14 13.474 14.4068 13.3603 14.6878 13.3603C14.9687 13.3603 15.2356 13.474 15.4181 13.6715L23.1691 22.7922L25.1156 20.5412C25.2981 20.3467 25.5629 20.235 25.8413 20.235C26.1198 20.235 26.3845 20.3467 26.567 20.5412L33.8283 28.9374C39.4165 22.7383 39.2702 13.6927 33.484 7.65103ZM24.9084 23.5287L20.3379 28.8136H24.9084V23.5287ZM13.7586 16.6874L6.37928 25.3757H13.7586V16.6874ZM25.8376 9.90536C28.4021 9.9082 30.4803 11.8305 30.4834 14.2027C30.4834 16.576 28.4034 18.5 25.8376 18.5C23.2718 18.5 21.1918 16.576 21.1918 14.2027C21.1918 11.8293 23.2718 9.90536 25.8376 9.90536ZM15.6169 5.60803C17.6695 5.60803 19.3335 7.14721 19.3335 9.04589C19.3335 10.9446 17.6695 12.4838 15.6169 12.4838C13.5643 12.4838 11.9003 10.9446 11.9003 9.04589C11.9003 7.14721 13.5643 5.60803 15.6169 5.60803Z" fill="white"/>
</svg>
