<svg width="164" height="39" viewBox="0 0 164 39" fill="none" xmlns="http://www.w3.org/2000/svg">
<path d="M18.6499 0.620178C28.9515 0.620178 37.2998 8.97059 37.2998 19.2701C37.2998 29.5695 28.9494 37.9199 18.6499 37.9199C8.35041 37.9199 0 29.5695 0 19.2701C0 8.97059 8.35041 0.620178 18.6499 0.620178ZM19.2338 8.08013C18.6513 8.08013 18.1799 8.55723 18.1799 9.14549V10.3641L18.0707 10.3335L17.7737 10.2492L17.5035 10.1744C17.5016 10.1744 17.4997 10.1725 17.4959 10.1725H17.4901L15.4399 9.61685C15.3498 9.59193 15.2732 9.68965 15.3192 9.77205L15.6468 10.3775C15.6775 10.4542 15.7216 10.5308 15.7599 10.6132C15.8135 10.7205 15.8672 10.8336 15.9189 10.9466C15.9649 11.0462 16.0109 11.144 16.0645 11.2513C16.1699 11.487 16.2849 11.7361 16.3979 12.0101C16.4746 12.1921 16.5512 12.3741 16.6183 12.5638C16.8022 13.0409 16.9766 13.5506 17.128 14.0737C17.1816 14.2404 17.2199 14.3994 17.2659 14.5662L17.287 14.6581C17.3483 14.9015 17.402 15.1429 17.4403 15.3862C17.471 15.5529 17.4997 15.712 17.515 15.8729C17.538 16.0549 17.561 16.237 17.5687 16.419C17.584 16.5857 17.5917 16.7601 17.5917 16.9268C17.5917 17.3521 17.5533 17.7622 17.4633 18.1492C17.4326 18.2623 17.402 18.383 17.3636 18.498C17.3253 18.634 17.2717 18.7701 17.2199 18.9157C17.1893 18.9981 17.1586 19.0824 17.1203 19.1648C16.9306 19.6208 16.6949 20.075 16.4516 20.5003C16.0952 21.1307 15.7369 21.6845 15.4859 22.0409C15.4514 22.0926 15.4188 22.1386 15.3901 22.1827C15.3115 22.2938 15.392 22.4509 15.528 22.4509H18.1799V24.5452H15.4973C14.7769 24.5452 14.1101 24.1371 13.7882 23.4837C13.6215 23.156 13.5563 22.7958 13.5947 22.4432C13.6042 22.3379 13.5257 22.2382 13.4184 22.2382H7.99964C7.90766 22.2382 7.83295 22.3129 7.83295 22.4049V22.516C7.83295 25.9727 10.6247 28.774 14.0698 28.774H23.7902C25.519 28.774 26.5389 27.2795 27.5073 25.7325L27.7592 25.3288C28.0108 24.9257 28.2628 24.5276 28.5269 24.1601C29.0614 23.4166 30.3472 22.8264 30.7227 22.6655C30.784 22.6387 30.8262 22.5774 30.8262 22.5084V21.307C30.8262 21.1959 30.7189 21.1154 30.6135 21.1461L24.9399 22.7862C24.9093 22.7939 24.8824 22.8111 24.8613 22.8341C24.2386 23.522 23.7117 23.978 23.591 24.0834C23.2384 24.3823 22.8015 24.5452 22.3417 24.5452H20.2876V22.4509H21.9201C21.9623 22.4509 22.0025 22.4356 22.0332 22.4088L22.2439 22.2152C22.334 22.1328 22.4413 22.0332 22.5697 21.9048C22.6463 21.8282 22.7307 21.7458 22.813 21.6538C22.8974 21.5714 22.9798 21.4794 23.0564 21.3894C23.1848 21.2514 23.3074 21.1077 23.4358 20.9563C23.5278 20.8567 23.6121 20.7437 23.6945 20.6306C23.7864 20.5233 23.8765 20.4026 23.9608 20.2876C24.0221 20.1976 24.0911 20.1056 24.1581 20.0079C24.2194 19.9159 24.2808 19.8182 24.3325 19.7262L24.4853 19.472C24.5818 19.2995 24.6678 19.122 24.7445 18.9444C24.8039 18.8161 24.8499 18.68 24.8958 18.5497C24.9418 18.4137 24.9801 18.2853 25.0089 18.1492C25.0779 17.8292 25.0932 17.5112 25.0625 17.1931C25.0549 17.0935 25.0472 16.9957 25.0242 16.9038V16.8885C25.0165 16.8233 25.0012 16.7505 24.9801 16.6834C24.9112 16.373 24.8039 16.0626 24.6678 15.758C24.6218 15.6449 24.5682 15.5299 24.5165 15.4246C24.3938 15.1966 24.2654 14.9685 24.1198 14.7482C24.0681 14.6658 24.0068 14.5815 23.9531 14.4991C23.8401 14.3247 23.7098 14.158 23.589 13.9971C23.4971 13.8763 23.3917 13.7556 23.2921 13.633C23.1924 13.5123 23.0947 13.3973 22.9951 13.2843C22.6387 12.8819 22.2651 12.5178 21.9316 12.2074C21.8703 12.1461 21.8032 12.0848 21.7343 12.0254C21.4756 11.7897 21.2399 11.5847 21.0426 11.4257C20.9429 11.349 20.8605 11.2743 20.7839 11.213C20.6862 11.1401 20.6095 11.0807 20.5559 11.0405C20.5405 11.029 20.5233 11.0214 20.5061 11.0156L20.2876 10.9543V9.14549C20.2876 8.85041 20.1688 8.58599 19.9791 8.39244C19.7894 8.19893 19.525 8.08013 19.2338 8.08013ZM14.4243 12.2016C14.3707 12.0809 14.204 12.0695 14.1331 12.1806L9.28153 19.7703L9.20107 19.8967C9.13016 20.006 9.20872 20.1516 9.34285 20.1516H14.3324C14.3879 20.1516 14.4397 20.1248 14.4703 20.0788C14.5355 19.9791 14.5968 19.8757 14.6524 19.7703C15.0835 19.046 15.4667 18.2623 15.6066 17.6836C15.9342 16.2772 15.2349 14.0181 14.4243 12.2016Z" fill="white"/>
<path d="M55.4733 28.2207C53.7874 28.2207 52.2376 27.8429 50.8243 27.0873C49.4278 26.3316 48.3122 25.2804 47.4778 23.9334C46.6605 22.57 46.2517 21.0423 46.2517 19.3504C46.2517 17.6584 46.6605 16.1389 47.4778 14.792C48.3122 13.445 49.4278 12.3937 50.8243 11.638C52.2376 10.8824 53.7874 10.5046 55.4733 10.5046C57.1593 10.5046 58.7005 10.8824 60.097 11.638C61.5107 12.3937 62.6174 13.445 63.4178 14.792C64.2354 16.1389 64.6439 17.6584 64.6439 19.3504C64.6439 21.0423 64.2354 22.57 63.4178 23.9334C62.6006 25.2804 61.4935 26.3316 60.097 27.0873C58.7005 27.8429 57.1593 28.2207 55.4733 28.2207ZM55.4733 24.3769C56.9038 24.3769 58.0448 23.9169 58.8963 22.997C59.7651 22.0772 60.1992 20.8616 60.1992 19.3504C60.1992 17.8227 59.7651 16.6071 58.8963 15.7036C58.0448 14.7838 56.9038 14.3238 55.4733 14.3238C54.0257 14.3238 52.8679 14.7755 51.9992 15.679C51.1477 16.5825 50.7221 17.8062 50.7221 19.3504C50.7221 20.878 51.1477 22.1018 51.9992 23.0217C52.8679 23.9252 54.0257 24.3769 55.4733 24.3769Z" fill="white"/>
<path d="M71.4425 16.2457C71.8681 15.6051 72.4556 15.0876 73.2049 14.6934C73.9543 14.2991 74.8312 14.102 75.836 14.102C77.011 14.102 78.0755 14.3895 79.0293 14.9644C79.9826 15.5394 80.732 16.3607 81.2769 17.4284C81.8391 18.4962 82.1199 19.7364 82.1199 21.1491C82.1199 22.5618 81.8391 23.8102 81.2769 24.8943C80.732 25.9621 79.9826 26.7916 79.0293 27.383C78.0755 27.9579 77.011 28.2453 75.836 28.2453C74.8483 28.2453 73.9714 28.0483 73.2049 27.654C72.4556 27.2598 71.8681 26.7506 71.4425 26.1263V32.1385H67.0743V14.2991H71.4425V16.2457ZM77.6753 21.1491C77.6753 20.0978 77.3687 19.2764 76.7555 18.6851C76.1594 18.0773 75.4186 17.7734 74.5331 17.7734C73.6648 17.7734 72.924 18.0773 72.3108 18.6851C71.7148 19.2928 71.4168 20.1224 71.4168 21.1737C71.4168 22.225 71.7148 23.0546 72.3108 23.6623C72.924 24.2701 73.6648 24.574 74.5331 24.574C75.4019 24.574 76.1426 24.2701 76.7555 23.6623C77.3687 23.0381 77.6753 22.2004 77.6753 21.1491Z" fill="white"/>
<path d="M97.8481 20.9519C97.8481 21.3462 97.8228 21.7568 97.7717 22.1839H87.8857C87.954 23.0381 88.2348 23.6952 88.7287 24.1551C89.2397 24.5987 89.8611 24.8204 90.5937 24.8204C91.6836 24.8204 92.4411 24.3769 92.8671 23.4899H97.5162C97.2778 24.3933 96.8436 25.2064 96.2133 25.9292C95.6004 26.652 94.8253 27.2187 93.8887 27.6294C92.9522 28.04 91.9048 28.2453 90.747 28.2453C89.3505 28.2453 88.1073 27.9579 87.0174 27.383C85.9275 26.808 85.0759 25.9867 84.4627 24.919C83.8499 23.8512 83.5433 22.6028 83.5433 21.1737C83.5433 19.7446 83.8413 18.4962 84.4374 17.4284C85.0502 16.3607 85.9017 15.5394 86.9916 14.9644C88.0815 14.3895 89.3333 14.102 90.747 14.102C92.1263 14.102 93.3524 14.3813 94.4251 14.9398C95.4982 15.4983 96.3326 16.295 96.9287 17.3299C97.5419 18.3648 97.8481 19.5721 97.8481 20.9519ZM93.3781 19.8431C93.3781 19.1204 93.1226 18.5454 92.6116 18.1183C92.1006 17.6913 91.462 17.4777 90.6959 17.4777C89.9633 17.4777 89.3419 17.6831 88.8309 18.0937C88.337 18.5044 88.0304 19.0875 87.9115 19.8431H93.3781Z" fill="white"/>
<path d="M108.838 14.1513C110.507 14.1513 111.835 14.677 112.823 15.7283C113.828 16.7631 114.33 18.1923 114.33 20.0156V28.0483H109.987V20.5823C109.987 19.6625 109.74 18.9479 109.247 18.4387C108.753 17.9294 108.089 17.6748 107.254 17.6748C106.42 17.6748 105.756 17.9294 105.262 18.4387C104.768 18.9479 104.521 19.6625 104.521 20.5823V28.0483H100.153V14.2992H104.521V16.1225C104.964 15.5147 105.56 15.0384 106.309 14.6934C107.058 14.332 107.901 14.1513 108.838 14.1513Z" fill="white"/>
<path d="M123.854 28.2207C122.543 28.2207 121.367 28.0154 120.329 27.6047C119.29 27.1941 118.455 26.5863 117.825 25.7814C117.212 24.9765 116.889 24.0073 116.855 22.8738H121.504C121.572 23.5145 121.802 24.0073 122.194 24.3523C122.585 24.6808 123.096 24.8451 123.726 24.8451C124.373 24.8451 124.884 24.7054 125.259 24.4262C125.633 24.1305 125.821 23.728 125.821 23.2188C125.821 22.7917 125.668 22.4386 125.361 22.1593C125.072 21.88 124.705 21.6501 124.263 21.4694C123.837 21.2887 123.224 21.0833 122.423 20.8534C121.265 20.5084 120.32 20.1635 119.588 19.8185C118.856 19.4736 118.226 18.9643 117.698 18.2908C117.17 17.6173 116.906 16.7385 116.906 15.6544C116.906 14.0445 117.51 12.7879 118.72 11.8844C119.928 10.9646 121.504 10.5046 123.445 10.5046C125.421 10.5046 127.013 10.9646 128.222 11.8844C129.431 12.7879 130.078 14.0527 130.164 15.679H125.438C125.404 15.1205 125.191 14.6852 124.799 14.3731C124.407 14.0445 123.905 13.8803 123.292 13.8803C122.764 13.8803 122.338 14.0199 122.015 14.2992C121.691 14.562 121.529 14.948 121.529 15.4572C121.529 16.0157 121.802 16.451 122.347 16.7631C122.892 17.0753 123.743 17.412 124.901 17.7734C126.059 18.1512 126.996 18.5126 127.711 18.8576C128.444 19.2025 129.074 19.7035 129.601 20.3606C130.13 21.0177 130.393 21.8636 130.393 22.8985C130.393 23.8841 130.13 24.7793 129.601 25.5842C129.091 26.3892 128.341 27.0298 127.354 27.5062C126.366 27.9825 125.199 28.2207 123.854 28.2207Z" fill="white"/>
<path d="M146.518 20.9519C146.518 21.3462 146.493 21.7568 146.442 22.1839H136.556C136.624 23.0381 136.905 23.6952 137.399 24.1551C137.91 24.5987 138.531 24.8204 139.264 24.8204C140.353 24.8204 141.111 24.3769 141.537 23.4899H146.186C145.948 24.3933 145.513 25.2064 144.883 25.9292C144.27 26.652 143.496 27.2187 142.559 27.6294C141.622 28.04 140.575 28.2453 139.417 28.2453C138.02 28.2453 136.777 27.9579 135.687 27.383C134.597 26.808 133.746 25.9867 133.133 24.919C132.52 23.8512 132.213 22.6028 132.213 21.1737C132.213 19.7446 132.511 18.4962 133.107 17.4284C133.72 16.3607 134.572 15.5394 135.661 14.9644C136.751 14.3895 138.003 14.102 139.417 14.102C140.796 14.102 142.022 14.3813 143.095 14.9398C144.168 15.4983 145.002 16.295 145.599 17.3299C146.212 18.3648 146.518 19.5721 146.518 20.9519ZM142.048 19.8431C142.048 19.1204 141.792 18.5454 141.281 18.1183C140.77 17.6913 140.132 17.4777 139.366 17.4777C138.634 17.4777 138.012 17.6831 137.501 18.0937C137.007 18.5044 136.7 19.0875 136.581 19.8431H142.048Z" fill="white"/>
<path d="M147.954 21.1491C147.954 19.7364 148.227 18.4962 148.772 17.4284C149.333 16.3607 150.091 15.5394 151.045 14.9644C151.999 14.3895 153.063 14.102 154.238 14.102C155.243 14.102 156.12 14.2991 156.869 14.6934C157.636 15.0876 158.223 15.6051 158.632 16.2457V14.2991H163V28.0483H158.632V26.1017C158.206 26.7423 157.61 27.2598 156.844 27.654C156.094 28.0483 155.217 28.2453 154.213 28.2453C153.054 28.2453 151.999 27.9579 151.045 27.383C150.091 26.7916 149.333 25.9621 148.772 24.8943C148.227 23.8102 147.954 22.5618 147.954 21.1491ZM158.632 21.1737C158.632 20.1224 158.325 19.2928 157.712 18.6851C157.116 18.0773 156.384 17.7734 155.515 17.7734C154.647 17.7734 153.906 18.0773 153.293 18.6851C152.697 19.2764 152.399 20.0978 152.399 21.1491C152.399 22.2004 152.697 23.0381 153.293 23.6623C153.906 24.2701 154.647 24.574 155.515 24.574C156.384 24.574 157.116 24.2701 157.712 23.6623C158.325 23.0546 158.632 22.225 158.632 21.1737Z" fill="white"/>
</svg>
