<svg width="36" height="36" viewBox="0 0 36 36" fill="none" xmlns="http://www.w3.org/2000/svg">
<path d="M18.2364 0.439026C27.9305 0.450086 35.7863 8.30593 35.7974 18C35.7974 27.6987 27.935 35.561 18.2364 35.561C8.53773 35.561 0.675415 27.6987 0.675415 18C0.675415 8.30134 8.53773 0.439026 18.2364 0.439026ZM17.4997 26.3624H4.75207C7.22971 30.3863 11.3763 33.0921 16.0573 33.7394C20.7382 34.3867 25.4635 32.9078 28.9402 29.7073H16.5639C16.2423 29.7074 15.9492 29.5232 15.8099 29.2333C15.6706 28.9435 15.7098 28.5995 15.9108 28.3484L17.4997 26.3624ZM30.1356 7.44424C24.928 1.56587 16.207 0.373915 9.61302 4.63931C3.01906 8.9047 0.530529 17.3477 3.75695 24.5076L12.5617 13.302C12.726 13.1098 12.9661 12.9992 13.219 12.9992C13.4718 12.9992 13.712 13.1098 13.8763 13.302L20.8521 22.1762L22.604 19.9861C22.7683 19.7968 23.0066 19.6881 23.2572 19.6881C23.5078 19.6881 23.746 19.7968 23.9103 19.9861L30.4454 28.1553C35.4748 22.1237 35.3431 13.3226 30.1356 7.44424ZM22.4176 22.8928L18.3041 28.0348H22.4176V22.8928ZM12.3827 16.2364L5.74133 24.6899H12.3827V16.2364ZM23.2538 9.63763C25.5619 9.64039 27.4322 11.5108 27.435 13.8188C27.435 16.128 25.563 18 23.2538 18C20.9446 18 19.0726 16.128 19.0726 13.8188C19.0726 11.5096 20.9446 9.63763 23.2538 9.63763ZM14.0552 5.45645C15.9026 5.45645 17.4001 6.95403 17.4001 8.8014C17.4001 10.6488 15.9026 12.1463 14.0552 12.1463C12.2078 12.1463 10.7103 10.6488 10.7103 8.8014C10.7103 6.95403 12.2078 5.45645 14.0552 5.45645Z" fill="white"/>
</svg>
