<svg width="99" height="39" viewBox="0 0 99 39" fill="none" xmlns="http://www.w3.org/2000/svg">
<path d="M2.59247 12.4198L2.55333 12.7621C2.5142 13.2182 2.52724 13.6721 2.59247 14.1156C2.78814 15.3549 3.19579 16.5453 3.81543 17.6378C4.36984 18.5776 4.93341 19.518 5.4999 20.451L5.92522 21.1493C6.13805 21.4976 6.35107 21.8446 6.56396 22.19L6.98944 22.8781C12.1616 31.2202 17.1213 38.3792 17.1213 38.3792L5.5928 30.3403C2.86967 28.2694 1.17383 25.1223 0.929239 21.698C0.782483 20.2468 0.782483 18.7629 0.88032 17.3116C1.07599 15.9256 1.49995 14.5722 2.11959 13.3166C2.11959 13.3166 2.42941 12.7133 2.59247 12.4198ZM29.0411 20.7196C29.0411 20.7196 29.9705 22.3013 30.3455 23.1003C31.2587 25.1223 31.2424 27.4541 30.264 29.476L30.3231 29.3448L30.264 29.476C29.9501 30.0468 29.5239 30.5551 29.0071 30.9463L28.7802 31.1067L18.3605 38.3792L29.0247 20.7196C29.0247 20.7196 29.0273 20.724 29.0322 20.7323L29.0411 20.7196ZM92.0643 9.46839C94.2657 9.501 96.467 9.81082 98.6031 10.3978C98.652 10.4141 98.6683 10.4468 98.6683 10.4957V13.5612C98.6683 13.5979 98.6408 13.6346 98.6064 13.6507L98.5705 13.6591H95.8148C95.7781 13.6591 95.7414 13.6316 95.7253 13.5972L95.7169 13.5612V12.6318C94.5103 12.3709 93.2873 12.2241 92.0643 12.2078C90.8577 12.2241 89.651 12.3709 88.4607 12.6318L88.477 16.8062L98.6031 20.3446C98.6357 20.3609 98.6683 20.3935 98.6683 20.4424V28.8238C98.6683 28.8727 98.652 28.9053 98.6031 28.9216C96.4833 29.5087 94.2983 29.8348 92.097 29.8511C89.8956 29.8185 87.6943 29.5087 85.5582 28.9216C85.5093 28.9053 85.493 28.8727 85.493 28.8238V25.7582C85.493 25.7215 85.5205 25.6849 85.5549 25.6688L85.5908 25.6604H88.3302C88.3792 25.6441 88.4444 25.6767 88.4607 25.7256V26.6877C89.6673 26.9486 90.8903 27.0953 92.1133 27.1116C93.3199 27.079 94.5266 26.9486 95.7169 26.6877V22.2687L85.5582 18.714C85.5256 18.6977 85.493 18.6651 85.493 18.6161V10.4957C85.493 10.4468 85.5093 10.4141 85.5582 10.3978C87.678 9.81082 89.863 9.48469 92.0643 9.46839ZM67.1159 9.82712C67.1485 9.82712 67.1812 9.84343 67.1975 9.87604L76.2963 23.6874V9.94127C76.2963 9.90458 76.3238 9.86789 76.3582 9.85184L76.3941 9.84343H79.1988C79.2355 9.84343 79.2722 9.87095 79.2882 9.90534L79.2966 9.94127V29.4597C79.2966 29.4964 79.2691 29.5331 79.2347 29.5492L79.1988 29.5576H76.6061C76.5572 29.5413 76.5246 29.525 76.5083 29.4923L67.4257 15.6647V29.4434C67.4257 29.4801 67.3982 29.5168 67.3638 29.5329L67.3279 29.5413H64.5233C64.4866 29.5413 64.4499 29.5138 64.4338 29.4794L64.4254 29.4434V9.92496C64.4254 9.88827 64.4529 9.85158 64.4873 9.83553L64.5233 9.82712H67.1159ZM58.1312 9.81082C58.1802 9.81082 58.2291 9.85974 58.2291 9.90866V12.4035C58.2291 12.4524 58.1802 12.5013 58.1312 12.5013H48.6247V18.2574H56.7289C56.7656 18.2574 56.8023 18.2849 56.8183 18.3193L56.8267 18.3552V20.8175C56.8267 20.8542 56.7992 20.8909 56.7648 20.9069L56.7289 20.9153H48.6247V26.8507H58.1475C58.1842 26.8507 58.2209 26.8783 58.237 26.9127L58.2454 26.9486V29.4434C58.2454 29.4801 58.2179 29.5168 58.1835 29.5329L58.1475 29.5413H45.7386C45.6733 29.5413 45.6244 29.5087 45.6244 29.4434V9.90866C45.6244 9.85974 45.6733 9.81082 45.7223 9.81082H58.1312ZM18.3931 0.597839L29.9216 8.63678C32.6447 10.7077 34.3406 13.8547 34.5851 17.279C34.5854 17.2814 34.5856 17.2837 34.5858 17.286L34.6015 17.279C34.7482 18.7466 34.7482 20.2141 34.6341 21.6817C34.4384 23.0677 34.0144 24.4211 33.3948 25.6767C33.3948 25.6767 33.085 26.28 32.9219 26.5735C32.9229 26.5669 32.9238 26.5602 32.9247 26.5535C32.9545 26.329 32.9741 26.1007 32.9806 25.8734V25.5498C32.9741 25.3238 32.9545 25.0995 32.9219 24.8777C32.7262 23.6384 32.3186 22.4481 31.699 21.3556C31.5604 21.1206 31.4212 20.8856 31.2815 20.6507L30.8612 19.9464C30.791 19.8291 30.7207 19.7119 30.6502 19.5947L30.2268 18.8926C24.6409 9.66191 18.6944 1.04981 18.4042 0.630143L18.3931 0.614146L18.4155 0.630219C18.4007 0.608751 18.3931 0.597839 18.3931 0.597839ZM17.1539 0.614146L6.47333 18.2737C6.47333 18.2737 6.47064 18.2691 6.4655 18.2604L6.45703 18.2737C6.45703 18.2737 5.52757 16.692 5.15253 15.893C4.23939 13.8547 4.272 11.523 5.23406 9.51731C5.5928 8.86506 6.09829 8.29434 6.71792 7.88669L17.1376 0.614146L17.1251 0.632839L17.1539 0.614146Z" fill="white"/>
</svg>
