<svg width="165" height="37" viewBox="0 0 165 37" fill="none" xmlns="http://www.w3.org/2000/svg">
<path d="M66.6057 29.2499H72.4834L67.6191 20.501C70.558 19.5558 72.3483 17.3306 72.3483 14.4041C72.3483 10.563 69.3081 7.63648 64.579 7.63648H55.0868V29.2499H60.4239V21.2022H62.3157L66.6057 29.2499ZM60.4239 17.0562V11.8129H63.5655C65.7613 11.8129 66.9436 12.8188 66.9436 14.4347C66.9436 15.9587 65.7613 17.0562 63.5655 17.0562H60.4239ZM74.6171 25.0735C74.6171 27.4819 76.7453 29.6768 80.4273 29.6768C82.6567 29.6768 84.2781 28.8232 85.1564 27.5427C85.1564 28.5792 85.2916 29.1279 85.3253 29.2499H89.9532C89.9195 29.0975 89.7504 28.0916 89.7504 26.9026V19.495C89.7504 16.3856 87.7574 13.6421 82.319 13.6421C77.3872 13.6421 75.1575 16.5076 74.955 18.6718L79.4138 19.4948C79.5151 18.3671 80.4949 17.2696 82.2851 17.2696C83.9066 17.2696 84.7509 18.0316 84.7509 18.9158C84.7509 19.4341 84.447 19.8304 83.535 19.9521L79.5826 20.501C76.8128 20.8667 74.6171 22.3909 74.6171 25.0735ZM81.6772 26.3234C80.2585 26.3234 79.6841 25.5614 79.6841 24.7688C79.6841 23.7018 80.4949 23.2445 81.5757 23.0922L84.7509 22.6349V23.3055C84.7509 25.6527 83.1971 26.3234 81.6772 26.3234ZM104.745 14.0991C104.407 14.0078 103.901 13.9468 103.394 13.9468C102.043 13.9468 99.9147 14.4344 99.0366 16.1416V14.0991H94.0708V29.2499H99.2055V22.6349C99.2055 19.617 101.063 18.5195 103.124 18.5195C103.631 18.5195 104.171 18.5498 104.745 18.6718V14.0991ZM112.994 29.2499V14.0991H107.86V29.2499H112.994ZM107.421 9.46565C107.421 10.9593 108.772 12.1788 110.393 12.1788C112.082 12.1788 113.434 10.9593 113.434 9.46565C113.434 7.9718 112.082 6.7525 110.393 6.7525C108.772 6.7525 107.421 7.9718 107.421 9.46565ZM122.458 29.2499V27.5427C123.235 28.7012 124.958 29.5852 127.187 29.5852C131.883 29.5852 135.193 26.2624 135.193 21.6289C135.193 17.0866 132.254 13.7334 127.39 13.7334C125.093 13.7334 123.235 14.587 122.526 15.532V7.17919H117.492V29.2499H122.458ZM130.059 21.6593C130.059 24.1895 128.268 25.4394 126.275 25.4394C124.282 25.4394 122.458 24.1591 122.458 21.6593C122.458 19.0987 124.282 17.9098 126.275 17.9098C128.268 17.9098 130.059 19.0987 130.059 21.6593ZM143.641 29.2499V7.17919H138.506V29.2499H143.641ZM152.056 19.8607C152.158 18.7328 153.239 17.2999 155.4 17.2999C157.833 17.2999 158.711 18.7024 158.778 19.8607H152.056ZM159.15 23.7932C158.677 24.9821 157.63 25.7747 155.772 25.7747C153.779 25.7747 152.056 24.5554 151.955 22.8482H163.643C163.676 22.7566 163.744 22.0556 163.744 21.4154C163.744 16.5379 160.535 13.6421 155.333 13.6421C150.975 13.6421 146.955 16.7513 146.955 21.6289C146.955 26.7197 151.076 29.7072 155.704 29.7072C159.961 29.7072 162.629 27.5123 163.44 24.8907L159.15 23.7932Z" fill="white"/>
<path d="M32.298 0.451233C36.8958 0.451233 40.623 3.81483 40.623 7.96404V28.9457C40.623 33.095 36.8958 36.4586 32.298 36.4586H9.04802C4.45025 36.4586 0.723022 33.095 0.723022 28.9457V7.96404C0.723022 3.81483 4.45025 0.451233 9.04802 0.451233H32.298ZM24.5333 11.9736H10.897V24.7618H16.6366V20.4216H23.4448C24.4939 20.4216 25.1074 20.7967 25.1074 21.7255V24.7618H30.847V21.5648C30.847 19.8234 29.7585 18.7247 28.2543 18.323C29.5111 18.0282 30.6293 17.1798 30.6293 15.4742C30.6293 12.6343 27.9575 11.9736 24.5333 11.9736ZM23.5438 15.7242C24.2959 15.7242 24.7511 15.8135 24.7511 16.3494C24.7511 16.8852 24.2959 16.9745 23.5441 16.9745H16.6366V15.7242H23.5438Z" fill="white"/>
</svg>
