<svg width="176" height="37" viewBox="0 0 176 37" fill="none" xmlns="http://www.w3.org/2000/svg">
<g clip-path="url(#clip0_31_107)">
<path d="M23.9225 7.7706H17.0406L8.04646 37H0.474411L9.35138 7.7706H2.21779L4.27667 0.906128H26.0591L23.9225 7.7706Z" fill="white"/>
<path d="M29.17 0.906128H51.2551L39.5549 37H17.878L29.17 0.906128ZM27.5925 30.16H34.2192L41.391 7.76827H34.6832L27.5925 30.16Z" fill="white"/>
<path d="M50.3748 37H42.8526L52.9602 5.99792L60.16 0.906128H75.8457L66.7693 27.8392H53.3975L50.3748 37ZM61.5101 20.9246L65.8935 7.7706H60.0208L55.678 20.9246H61.5101Z" fill="white"/>
<path d="M91.0965 37H71.3603L75.188 25.7668H82.7554L81.2394 30.16H85.9232L87.9241 24.4186L78.9926 15.3581L83.9223 0.906128H103.554L99.7833 11.6355H92.8643L94.2017 7.78693H89.214L87.5901 12.5044L96.5355 21.5404L91.0965 37Z" fill="white"/>
<path d="M109.466 15.729H115.994L121.338 0.906128H129.003L115.848 37H108.326L113.527 22.5725H107.024L101.871 37H94.349L107.095 0.906128H114.76L109.466 15.729Z" fill="white"/>
<path d="M132.267 0.906128H154.352L140.724 37H119.051L132.267 0.906128ZM129.135 30.16H135.763L144.129 7.76827H137.423L129.135 30.16Z" fill="white"/>
<path d="M176.818 7.7706H169.931L158.619 37H151.047L162.242 7.7706H155.109L157.717 0.906128H179.499L176.818 7.7706Z" fill="white"/>
</g>
<defs>
<clipPath id="clip0_31_107">
<rect width="176" height="37" fill="white"/>
</clipPath>
</defs>
</svg>
