<svg width="178" height="34" viewBox="0 0 178 34" fill="none" xmlns="http://www.w3.org/2000/svg">
<g clip-path="url(#clip0_31_152)">
<path d="M108.798 15.4534C111.282 15.4534 113.159 16.1157 114.539 17.3852C115.919 18.6547 116.581 20.4761 116.581 22.7942C116.581 23.6222 116.526 24.3949 116.36 25.2228L115.532 26.2163L106.26 26.2715C106.425 27.0442 106.867 27.7617 107.529 28.2033C108.302 28.6449 109.185 28.8656 110.123 28.8104C111.945 28.7001 113.711 28.4241 115.477 27.8721L115.974 28.2585L114.87 33.226C113.048 33.7227 111.227 33.9987 109.35 33.9987C106.26 33.9987 103.831 33.1708 102.12 31.515C100.409 29.8591 99.5258 27.5962 99.5258 24.7261C99.5258 21.8559 100.354 19.593 102.01 17.9371C103.665 16.2813 105.928 15.4534 108.798 15.4534ZM30.9743 15.4534C33.4581 15.4534 35.3347 16.1157 36.7146 17.3852C38.0944 18.6547 38.7567 20.4761 38.7567 22.7942C38.7567 23.6222 38.7016 24.3949 38.536 25.2228L37.7081 26.2163L28.4354 26.2715C28.601 27.0442 29.0425 27.7617 29.7049 28.2033C30.4776 28.6449 31.3607 28.8656 32.299 28.8104C34.1204 28.7001 35.8866 28.4241 37.6529 27.8721L38.2048 28.2585L37.1009 33.226C35.2795 33.7227 33.4581 33.9987 31.5815 33.9987C28.4906 33.9987 26.062 33.1708 24.351 31.515C22.64 29.8591 21.7569 27.5962 21.7017 24.7261C21.7017 21.8559 22.5296 19.593 24.1854 17.9371C25.8413 16.2813 28.1042 15.4534 30.9743 15.4534ZM49.0781 15.4534C51.5619 15.4534 53.4385 16.1157 54.8183 17.3852C56.1982 18.6547 56.8605 20.4761 56.8605 22.7942C56.8605 23.6222 56.8053 24.3949 56.6397 25.2228L55.8118 26.2163L46.5392 26.2715C46.7047 27.0442 47.1463 27.7617 47.8086 28.2033C48.5814 28.6449 49.5197 28.8656 50.4028 28.8104C52.2242 28.7001 53.9904 28.4241 55.7566 27.8721L56.3086 28.2585L55.2047 33.226C53.3833 33.7227 51.5619 33.9987 49.6852 33.9987C46.5944 33.9987 44.1658 33.1708 42.4548 31.515C40.6886 29.8591 39.8606 27.5962 39.8606 24.7261C39.8606 21.8559 40.6886 19.593 42.3444 17.9371C44.0002 16.2813 46.208 15.4534 49.0781 15.4534ZM166.918 15.2878C168.74 15.4534 170.616 15.7846 172.382 16.3917L171.444 21.4144L170.616 21.6904C169.788 21.1936 168.905 20.7521 168.022 20.4209C167.36 20.1449 166.642 19.9793 165.925 19.9793C165.262 19.9793 164.931 20.2001 164.931 20.6417C164.931 20.9728 165.152 21.304 165.483 21.4696C166.09 21.8008 166.697 22.0215 167.36 22.2423C168.298 22.5735 169.181 22.9598 170.064 23.4014C170.782 23.7877 171.444 24.3949 171.941 25.0572C172.493 25.8299 172.769 26.8234 172.714 27.7617C172.714 28.8104 172.438 29.9143 171.886 30.7974C171.279 31.7909 170.34 32.6189 169.236 33.0604C167.801 33.6676 166.256 33.9435 164.71 33.8883C162.558 33.8883 160.405 33.5572 158.363 32.8948L159.246 27.541L159.853 27.0994C160.792 27.8169 161.785 28.3689 162.889 28.8104C163.772 29.1968 164.71 29.4176 165.649 29.4728C166.366 29.4728 166.697 29.252 166.697 28.7552C166.697 28.4241 166.477 28.0929 166.145 27.9273C165.538 27.5962 164.931 27.3202 164.269 27.1546C163.331 26.8234 162.447 26.4371 161.564 25.9955C160.847 25.6092 160.184 25.0572 159.688 24.3397C159.136 23.5118 158.86 22.5735 158.915 21.58C158.915 20.4761 159.246 19.3722 159.853 18.3787C160.516 17.3852 161.509 16.6125 162.613 16.1157C163.993 15.5086 165.428 15.2326 166.918 15.2878ZM155.714 7.22942L155.438 25.6644L155.493 27.9273C155.493 28.1481 155.493 28.3689 155.603 28.5897C155.659 28.7001 155.824 28.8104 155.99 28.7552C156.21 28.7552 156.431 28.7001 156.597 28.6449L157.038 29.0312L156.376 32.7844C155.327 33.4468 154.113 33.8331 152.899 33.8883C152.126 33.8331 151.409 33.5572 150.801 33.1156C150.194 32.6189 149.698 32.0117 149.366 31.239H149.09C148.097 32.2877 146.883 33.1708 145.558 33.8331C143.405 33.9435 141.363 33.0604 139.983 31.4598C138.659 29.8591 137.941 27.7066 137.941 24.9468C137.941 21.8559 138.769 19.5378 140.425 17.9371C142.081 16.3365 144.344 15.5086 147.214 15.5086C147.655 15.5086 148.152 15.5638 148.594 15.619L148.483 7.72617L155.714 7.22942ZM62.8767 0.0215805C62.9319 0.0215805 62.9319 0.076775 62.9871 0.076775C62.9871 0.131969 63.0423 0.187164 63.0423 0.242358V0.959886C63.0423 1.34625 63.0975 1.73261 63.0975 2.11897C63.0975 2.33975 63.0975 2.61572 63.1527 2.8365C63.1527 3.16766 63.1527 3.49883 63.2079 3.83C63.2079 4.21636 63.2079 4.54752 63.0975 4.93388C63.0423 5.15466 62.9871 5.32025 62.8215 5.48583C63.0975 5.7618 63.0975 5.7618 63.0423 5.817C63.2079 5.7618 63.3735 5.7618 63.4839 5.70661L64.4773 5.54102C64.8085 5.48583 65.1397 5.54102 65.4156 5.54102C65.526 5.54102 65.6364 5.54102 65.7468 5.59622C65.9124 5.59622 66.0228 5.65141 66.1884 5.7618C66.4643 5.87219 66.6851 6.03777 66.9059 6.20336L67.1267 6.42413C67.1819 6.47933 67.1819 6.47933 67.2371 6.47933C67.513 6.31375 67.8442 6.31375 68.1754 6.25855C68.341 6.20336 68.5065 6.20336 68.6169 6.20336C68.8377 6.20336 69.0585 6.36894 69.1689 6.58972C69.3345 6.86569 69.5 7.19686 69.5552 7.52802C69.6104 7.85919 69.6104 8.19036 69.6104 8.52152L69.6098 9.32672L75.1299 9.32681L75.5714 9.82356L75.0747 15.2878L69.1137 15.067H66.4091L66.2988 19.4274H68.8377L73.1981 19.317L73.5844 19.8689L73.1429 25.3332L68.341 25.2228H66.1884V25.7196L66.4643 33.5572H58.9579L59.3443 26.4371L58.9579 9.32681L60.1548 9.32672L60.1179 9.27746C60.0596 9.17502 60.0508 9.05139 60.0066 8.96308C60.0066 8.79749 59.9514 8.57672 59.9514 8.41113C59.9514 7.804 59.9514 7.25205 59.8962 6.64491V6.42413C59.8962 6.36894 59.8962 6.31375 59.7858 6.31375C59.5099 6.31375 59.2339 6.31375 58.9579 6.20336C58.6819 6.09297 58.4612 5.87219 58.2956 5.65141C58.1852 5.48583 58.13 5.26505 58.13 5.04427V4.10597C58.13 3.94038 58.1852 3.83 58.1852 3.66441C58.2404 3.22286 58.2956 2.7813 58.2956 2.33975C58.3508 1.89819 58.3508 1.45664 58.406 1.01508C58.406 0.849497 58.4612 0.628719 58.4612 0.463136C58.4612 0.407942 58.5164 0.352747 58.5715 0.407942L58.6819 0.51833C58.9027 0.794303 59.0131 1.12547 59.1235 1.45664C59.1787 1.56702 59.1787 1.62222 59.2339 1.73261C59.2891 1.73261 59.3443 1.67741 59.3995 1.67741C59.6754 1.56702 59.9514 1.51183 60.2274 1.45664C60.5034 1.40144 60.7793 1.40144 61.0553 1.40144C61.3313 1.40144 61.552 1.51183 61.7728 1.56702C61.8832 1.62222 61.9936 1.67741 62.1592 1.7878C62.1592 1.73261 62.2144 1.62222 62.2144 1.56702C62.3248 1.29105 62.4352 0.959886 62.5455 0.683914C62.6007 0.463136 62.7111 0.297553 62.7663 0.076775C62.7663 0.0215805 62.8215 -0.0336139 62.8767 0.0215805ZM97.318 15.8398L96.9869 25.7196L97.2628 33.5572H89.9772L90.3083 26.4371L90.0324 16.2813L97.318 15.8398ZM7.79267 9.32681L8.45501 13.3008L11.2699 26.8234H11.7115L15.1335 13.7976L15.8511 9.32681H23.1919L15.8511 33.502H6.79917L0.175842 9.32681H7.79267ZM130.159 15.5638C132.035 15.5638 133.47 16.0053 134.464 16.8333C135.457 17.7716 136.009 19.0962 135.899 20.4761L135.733 25.554L136.009 33.3916L128.779 33.502L129.165 23.6222C129.165 22.0767 128.558 21.3592 127.399 21.3592C126.792 21.3592 126.185 21.5248 125.633 21.8559V25.6092L125.909 33.4468H118.568L118.899 26.3267L118.623 16.1709L125.522 15.7294V18.3235H125.798C127.013 17.054 128.503 16.1157 130.159 15.5638ZM87.383 15.7846C87.7142 15.8398 87.9902 15.8398 88.2661 15.8949V22.4079L87.5486 22.6287C87.1623 22.4079 86.6655 22.2975 86.224 22.3527C85.6168 22.3527 85.0097 22.5183 84.4577 22.7391C83.8506 23.015 83.2435 23.3462 82.7467 23.7877V25.6644L83.0227 33.502H75.7922L76.1234 26.3819L75.8474 16.2261L82.7467 15.7846V19.0962H83.0779C84.1266 16.8884 85.5616 15.7846 87.383 15.7846ZM145.282 21.028C144.951 21.4696 144.785 21.2488 144.785 22.5183C144.785 24.2293 144.951 26.6027 145.282 27.3202C145.558 28.0377 146.22 28.4793 146.938 28.4793C147.6 28.4793 148.207 28.2033 148.704 27.7066L148.759 26.3819L148.704 20.7521C148.152 20.5313 147.6 20.3657 147.048 20.3657C146.386 20.3105 145.724 20.5313 145.282 21.028ZM30.9191 20.0897C29.5393 20.0897 28.7114 20.9728 28.4354 22.7391L32.575 22.5735V22.0767C32.575 20.7521 32.023 20.0897 30.9191 20.0897ZM108.633 20.0897C107.253 20.0897 106.425 20.9728 106.149 22.7391L110.289 22.5735L110.344 22.0767C110.344 20.7521 109.792 20.0897 108.633 20.0897ZM49.0229 20.0897C47.6431 20.0897 46.8151 20.9728 46.5392 22.7391L50.6236 22.5735L50.6787 22.0767C50.6787 20.7521 50.1268 20.0897 49.0229 20.0897ZM175.694 12.4177L176.191 13.7976L176.688 12.4177H177.405V14.5151H176.853V13.1352L176.356 14.5151H175.97L175.473 13.1352V14.5151H174.921L174.977 12.4177H175.694ZM174.48 12.4177V12.8593H173.873V14.5151H173.321V12.8593H172.714V12.4177H174.48ZM93.8408 6.23592C94.7239 6.23592 95.6622 6.56709 96.3245 7.22942C96.9869 7.94695 97.318 8.88525 97.2628 9.82356C97.318 10.8723 96.9317 11.8658 96.2693 12.6385C95.5518 13.356 94.5583 13.7424 93.5096 13.6872C92.5713 13.7424 91.5778 13.4112 90.9155 12.7489C90.2531 12.0313 89.9772 11.093 90.0324 10.0995C89.9772 9.05084 90.3635 8.00214 91.0811 7.28462C91.7986 6.56709 92.7921 6.18073 93.8408 6.23592ZM67.5682 6.86569C67.5682 6.86569 67.5682 6.92088 67.6234 6.92088C67.6786 7.08647 67.7338 7.19686 67.789 7.36244C67.8994 7.69361 67.9546 8.02477 68.0098 8.35594C68.065 8.63191 68.065 8.90788 68.065 9.18386C68.065 9.24588 68.0476 9.29048 68.0127 9.32745L68.9413 9.32704C68.9454 9.20572 68.9481 9.0844 68.9481 8.96308C68.9481 8.57672 68.8929 8.24555 68.8377 7.85919C68.8377 7.69361 68.7273 7.52802 68.6721 7.36244C68.5617 7.08647 68.341 6.97608 68.065 6.92088C67.8994 6.92088 67.7338 6.86569 67.5682 6.86569ZM67.0163 8.07997H66.9059V8.57672C66.9059 8.7423 66.9059 8.90788 66.8507 9.07347C66.8507 9.18386 66.7955 9.23905 66.7403 9.29424L66.7158 9.32672L67.2905 9.32789C67.228 9.27143 67.1819 9.20005 67.1819 9.12866V8.19036C67.1819 8.02477 67.1819 8.02477 67.0163 8.07997ZM63.815 7.52802C63.539 7.58322 63.2631 7.63841 62.9871 7.63841C62.7111 7.69361 62.4904 7.80399 62.2696 7.96958C62.2696 7.96958 62.2144 8.02477 62.2144 8.07997C62.2144 8.30074 62.2144 8.52152 62.2696 8.7423C62.2696 8.85269 62.3248 8.96308 62.3248 9.07347L62.3238 9.32672H66.0568L66.0375 9.30718C65.9986 9.2632 65.9676 9.21145 65.9676 9.12866V8.68711C65.9676 8.41113 65.9676 8.07997 65.9124 7.80399C65.9124 7.7488 65.8572 7.69361 65.802 7.69361L64.9741 7.52802C64.5877 7.47283 64.2014 7.52802 63.815 7.52802ZM61.2761 7.85919H61.0553V9.01827C61.0553 9.12698 61.0315 9.2357 60.9995 9.32879L61.4116 9.32739C61.3865 9.26221 61.3865 9.18757 61.3865 9.12866C61.3865 8.7423 61.3313 8.30074 61.3313 7.91438C61.3313 7.85919 61.3313 7.85919 61.2761 7.85919Z" fill="white"/>
</g>
<defs>
<clipPath id="clip0_31_152">
<rect width="178" height="34" fill="white"/>
</clipPath>
</defs>
</svg>
