<svg width="129" height="36" viewBox="0 0 129 36" fill="none" xmlns="http://www.w3.org/2000/svg">
<path d="M8.27304 36V32.1346H9.82582V24.4038H6.72027V28.2692H3.61471V8.94232H6.72027V12.8077H9.82582V5.07693H8.27304V1.21155H2.06193V5.07693H0.509155V32.1346H2.06193V36H8.27304ZM15.4779 36V24.4038H18.5835V36H21.689V20.5385H20.1363V16.6731H21.689V5.07693H20.1363V1.21155H12.3724V36H15.4779ZM18.5835 16.6731H15.4779V8.94232H18.5835V16.6731ZM30.4467 36V24.4038H31.9995V20.5385H33.5523V1.21155H30.4467V16.6731H27.3412V1.21155H24.2356V20.5385H25.7884V24.4038H27.3412V36H30.4467ZM39.2044 36V24.4038H43.8627V20.5385H45.4155V5.07693H43.8627V1.21155H36.0988V36H39.2044ZM42.3099 16.6731H39.2044V8.94232H42.3099V16.6731ZM54.1732 36V8.94232H57.2787V1.21155H47.962V8.94232H51.0676V36H54.1732ZM67.5892 36V32.1346H69.1419V5.07693H67.5892V1.21155H61.378V5.07693H59.8253V32.1346H61.378V36H67.5892ZM66.0364 28.2692H62.9308V8.94232H66.0364V28.2692ZM74.794 36V24.4038H79.4524V20.5385H81.0052V5.07693H79.4524V1.21155H71.6885V36H74.794ZM77.8996 16.6731H74.794V8.94232H77.8996V16.6731ZM91.3156 36V32.1346H92.8684V1.21155H89.7628V28.2692H86.6573V1.21155H83.5517V32.1346H85.1045V36H91.3156ZM98.5205 36V24.4038H100.073V28.2692H101.626V36H104.732V1.21155H101.626V12.8077H100.073V8.94232H98.5205V1.21155H95.4149V36H98.5205ZM110.384 36V24.4038H111.936V28.2692H113.489V36H116.595V24.4038H115.042V20.5385H113.489V16.6731H115.042V12.8077H116.595V1.21155H113.489V8.94232H111.936V12.8077H110.384V1.21155H107.278V36H110.384ZM126.905 36V32.1346H128.458V16.6731H126.905V12.8077H128.458V5.07693H126.905V1.21155H120.694V5.07693H119.141V16.6731H120.694V20.5385H125.352V28.2692H122.247V24.4038H119.141V32.1346H120.694V36H126.905ZM125.352 12.8077H122.247V8.94232H125.352V12.8077Z" fill="white"/>
</svg>
